<svg width="726" height="69" viewBox="0 0 726 69" fill="none" xmlns="http://www.w3.org/2000/svg">
<g filter="url(#filter0_d_10_107)">
<path d="M28.976 36.504V36.088C28.976 35.9067 29.0667 35.816 29.248 35.816H30.272C30.4533 35.816 30.544 35.9067 30.544 36.088V36.376C30.544 36.824 30.64 37.1493 30.832 37.352C31.0347 37.544 31.3653 37.64 31.824 37.64H32.928C33.3867 37.64 33.7173 37.5387 33.92 37.336C34.1227 37.1227 34.224 36.7813 34.224 36.312V35.944C34.224 35.6027 34.0907 35.336 33.824 35.144C33.568 34.9413 33.248 34.8133 32.864 34.76C32.48 34.696 32.0587 34.6107 31.6 34.504C31.1413 34.3973 30.72 34.2747 30.336 34.136C29.952 33.9973 29.6267 33.736 29.36 33.352C29.104 32.968 28.976 32.4773 28.976 31.88V31.208C28.976 30.4293 29.1947 29.8213 29.632 29.384C30.08 28.936 30.6933 28.712 31.472 28.712H33.168C33.9573 28.712 34.5707 28.936 35.008 29.384C35.456 29.8213 35.68 30.4293 35.68 31.208V31.56C35.68 31.7413 35.5893 31.832 35.408 31.832H34.384C34.2027 31.832 34.112 31.7413 34.112 31.56V31.352C34.112 30.8933 34.0107 30.568 33.808 30.376C33.616 30.1733 33.2907 30.072 32.832 30.072H31.824C31.3653 30.072 31.0347 30.1787 30.832 30.392C30.64 30.5947 30.544 30.9467 30.544 31.448V31.944C30.544 32.424 30.8907 32.7493 31.584 32.92C31.8933 32.9947 32.2293 33.0587 32.592 33.112C32.9653 33.1653 33.3387 33.2453 33.712 33.352C34.0853 33.4587 34.4267 33.6027 34.736 33.784C35.0453 33.9547 35.296 34.2213 35.488 34.584C35.68 34.936 35.776 35.368 35.776 35.88V36.504C35.776 37.2827 35.552 37.896 35.104 38.344C34.6667 38.7813 34.0587 39 33.28 39H31.488C30.7093 39 30.096 38.7813 29.648 38.344C29.2 37.896 28.976 37.2827 28.976 36.504ZM43.3256 39H38.2056C38.0243 39 37.9336 38.9093 37.9336 38.728V28.984C37.9336 28.8027 38.0243 28.712 38.2056 28.712L43.3256 28.712C43.4963 28.712 43.5816 28.8027 43.5816 28.984V29.8C43.5816 29.9813 43.4963 30.072 43.3256 30.072L39.6776 30.072C39.5496 30.072 39.4856 30.1253 39.4856 30.232V32.936C39.4856 33.0427 39.5496 33.096 39.6776 33.096H42.7656C42.9576 33.096 43.0536 33.1867 43.0536 33.368V34.184C43.0536 34.3653 42.9576 34.456 42.7656 34.456H39.6776C39.5496 34.456 39.4856 34.5093 39.4856 34.616V37.464C39.4856 37.5813 39.5496 37.64 39.6776 37.64H43.3256C43.4963 37.64 43.5816 37.7307 43.5816 37.912V38.728C43.5816 38.9093 43.4963 39 43.3256 39ZM46.2771 39H45.0931C45.0078 39 44.9438 38.9733 44.9011 38.92C44.8691 38.8667 44.8745 38.7973 44.9171 38.712L47.5571 33.672L45.0291 29C44.9865 28.9253 44.9811 28.8613 45.0131 28.808C45.0558 28.744 45.1198 28.712 45.2051 28.712H46.3411C46.5545 28.712 46.7038 28.8027 46.7891 28.984L48.6291 32.696H48.6931L50.5331 28.984C50.6291 28.8027 50.7678 28.712 50.9491 28.712H52.1331C52.2185 28.712 52.2771 28.744 52.3091 28.808C52.3518 28.872 52.3571 28.9413 52.3251 29.016L49.7651 33.672L52.4051 38.696C52.4478 38.7813 52.4531 38.856 52.4211 38.92C52.3891 38.9733 52.3251 39 52.2291 39H51.0291C50.8585 39 50.7358 38.9147 50.6611 38.744L48.6931 34.84H48.6291L46.6611 38.744C46.5865 38.9147 46.4585 39 46.2771 39Z" fill="white" fill-opacity="0.6" shape-rendering="crispEdges"/>
</g>
<g filter="url(#filter1_d_10_107)">
<path d="M93.432 39H92.44C92.2586 39 92.168 38.9093 92.168 38.728V28.984C92.168 28.8027 92.2586 28.712 92.44 28.712H93.336C93.5066 28.712 93.624 28.7707 93.688 28.888L97.56 35.848H97.624V28.984C97.624 28.8027 97.7146 28.712 97.896 28.712H98.888C99.0693 28.712 99.16 28.8027 99.16 28.984V38.728C99.16 38.9093 99.0693 39 98.888 39H98.024C97.8533 39 97.7146 38.9147 97.608 38.744L93.768 31.864H93.704V38.728C93.704 38.9093 93.6133 39 93.432 39ZM102.056 39H100.904C100.755 39 100.701 38.9093 100.744 38.728L103.528 28.984C103.581 28.8027 103.709 28.712 103.912 28.712H105.512C105.725 28.712 105.853 28.8027 105.896 28.984L108.68 38.728C108.723 38.9093 108.664 39 108.504 39H107.368C107.272 39 107.203 38.984 107.16 38.952C107.128 38.9093 107.101 38.8347 107.08 38.728L106.472 36.648H102.952L102.344 38.728C102.301 38.9093 102.205 39 102.056 39ZM104.68 30.248L103.272 35.368H106.168L104.744 30.248H104.68ZM117.302 28.712H119.094C119.275 28.712 119.366 28.8027 119.366 28.984V38.728C119.366 38.9093 119.275 39 119.094 39L118.102 39C117.92 39 117.83 38.9093 117.83 38.728V30.648H117.766L115.686 36.504C115.622 36.6747 115.504 36.76 115.334 36.76H114.31C114.15 36.76 114.038 36.6747 113.974 36.504L111.846 30.632H111.782V38.728C111.782 38.8347 111.76 38.9093 111.718 38.952C111.686 38.984 111.616 39 111.51 39H110.534C110.352 39 110.262 38.9093 110.262 38.728V28.984C110.262 28.8027 110.352 28.712 110.534 28.712H112.326C112.443 28.712 112.528 28.7707 112.582 28.888L114.774 35.064H114.854L117.062 28.888C117.083 28.7707 117.163 28.712 117.302 28.712ZM127.091 39H121.971C121.79 39 121.699 38.9093 121.699 38.728V28.984C121.699 28.8027 121.79 28.712 121.971 28.712L127.091 28.712C127.262 28.712 127.347 28.8027 127.347 28.984V29.8C127.347 29.9813 127.262 30.072 127.091 30.072H123.443C123.315 30.072 123.251 30.1253 123.251 30.232V32.936C123.251 33.0427 123.315 33.096 123.443 33.096H126.531C126.723 33.096 126.819 33.1867 126.819 33.368V34.184C126.819 34.3653 126.723 34.456 126.531 34.456H123.443C123.315 34.456 123.251 34.5093 123.251 34.616V37.464C123.251 37.5813 123.315 37.64 123.443 37.64H127.091C127.262 37.64 127.347 37.7307 127.347 37.912V38.728C127.347 38.9093 127.262 39 127.091 39Z" fill="white" fill-opacity="0.6" shape-rendering="crispEdges"/>
</g>
<g filter="url(#filter2_d_10_107)">
<path d="M280.448 39H279.44C279.259 39 279.168 38.9093 279.168 38.728V28.984C279.168 28.8027 279.259 28.712 279.44 28.712H283.248C284.027 28.712 284.635 28.9307 285.072 29.368C285.509 29.7947 285.728 30.4027 285.728 31.192V32.856C285.728 33.6347 285.509 34.2427 285.072 34.68C284.635 35.1173 284.027 35.336 283.248 35.336H280.912C280.784 35.336 280.72 35.3893 280.72 35.496V38.728C280.72 38.9093 280.629 39 280.448 39ZM280.896 33.96H283.024C283.781 33.96 284.16 33.5653 284.16 32.776V31.256C284.16 30.4667 283.781 30.072 283.024 30.072H280.896C280.779 30.072 280.72 30.1253 280.72 30.232V33.8C280.72 33.9067 280.779 33.96 280.896 33.96ZM289.253 28.984V38.728C289.253 38.9093 289.162 39 288.981 39H287.973C287.792 39 287.701 38.9093 287.701 38.728V28.984C287.701 28.8027 287.792 28.712 287.973 28.712H288.981C289.162 28.712 289.253 28.8027 289.253 28.984ZM292.932 39H291.94C291.759 39 291.668 38.9093 291.668 38.728V28.984C291.668 28.8027 291.759 28.712 291.94 28.712H292.836C293.007 28.712 293.124 28.7707 293.188 28.888L297.06 35.848H297.124V28.984C297.124 28.8027 297.215 28.712 297.396 28.712H298.388C298.569 28.712 298.66 28.8027 298.66 28.984V38.728C298.66 38.9093 298.569 39 298.388 39H297.524C297.353 39 297.215 38.9147 297.108 38.744L293.268 31.864H293.204V38.728C293.204 38.9093 293.113 39 292.932 39ZM305.028 39H303.316C302.527 39 301.913 38.7813 301.476 38.344C301.049 37.9067 300.836 37.2987 300.836 36.52V31.192C300.836 30.4027 301.049 29.7947 301.476 29.368C301.913 28.9307 302.527 28.712 303.316 28.712H305.028C305.817 28.712 306.425 28.9307 306.852 29.368C307.289 29.7947 307.508 30.4027 307.508 31.192V31.768C307.508 31.96 307.417 32.056 307.236 32.056H306.228C306.047 32.056 305.956 31.96 305.956 31.768V31.256C305.956 30.4667 305.572 30.072 304.804 30.072H303.54C302.772 30.072 302.388 30.4667 302.388 31.256V36.456C302.388 37.2453 302.772 37.64 303.54 37.64H304.804C305.572 37.64 305.956 37.2453 305.956 36.456V35.016C305.956 34.9093 305.897 34.856 305.78 34.856H304.484C304.303 34.856 304.212 34.7653 304.212 34.584V33.768C304.212 33.5867 304.303 33.496 304.484 33.496H307.172C307.396 33.496 307.508 33.608 307.508 33.832V36.52C307.508 37.2987 307.289 37.9067 306.852 38.344C306.415 38.7813 305.807 39 305.028 39Z" fill="white" fill-opacity="0.6" shape-rendering="crispEdges"/>
</g>
<g filter="url(#filter3_d_10_107)">
<path d="M425.84 28.712H426.848C427.029 28.712 427.12 28.7973 427.12 28.968V36.52C427.12 37.2987 426.901 37.9067 426.464 38.344C426.027 38.7813 425.419 39 424.64 39H423.04C422.251 39 421.637 38.7813 421.2 38.344C420.763 37.9067 420.544 37.2987 420.544 36.52V35.08C420.544 34.8987 420.64 34.808 420.832 34.808H421.84C422.021 34.808 422.112 34.8987 422.112 35.08V36.456C422.112 37.2453 422.496 37.64 423.264 37.64H424.4C425.168 37.64 425.552 37.2453 425.552 36.456V28.984C425.552 28.8027 425.648 28.712 425.84 28.712ZM431.915 37.64H433.307C434.086 37.64 434.475 37.2453 434.475 36.456V31.256C434.475 30.4667 434.086 30.072 433.307 30.072L431.915 30.072C431.147 30.072 430.763 30.4667 430.763 31.256V36.456C430.763 37.2453 431.147 37.64 431.915 37.64ZM433.547 39H431.691C430.902 39 430.288 38.7813 429.851 38.344C429.424 37.9067 429.211 37.2987 429.211 36.52V31.192C429.211 30.4027 429.424 29.7947 429.851 29.368C430.288 28.9307 430.902 28.712 431.691 28.712L433.547 28.712C434.336 28.712 434.95 28.9307 435.387 29.368C435.824 29.7947 436.043 30.4027 436.043 31.192V36.52C436.043 37.2987 435.824 37.9067 435.387 38.344C434.95 38.7813 434.336 39 433.547 39ZM439.927 37.672H442.167C442.967 37.672 443.367 37.288 443.367 36.52V35.528C443.367 34.76 442.946 34.376 442.103 34.376H439.927C439.81 34.376 439.751 34.4293 439.751 34.536V37.512C439.751 37.6187 439.81 37.672 439.927 37.672ZM439.927 33.096H442.007C442.818 33.096 443.223 32.7067 443.223 31.928V31.192C443.223 30.424 442.829 30.04 442.039 30.04H439.927C439.81 30.04 439.751 30.0933 439.751 30.2V32.936C439.751 33.0427 439.81 33.096 439.927 33.096ZM438.199 38.728V28.984C438.199 28.8027 438.29 28.712 438.471 28.712H442.263C443.053 28.712 443.666 28.9253 444.103 29.352C444.541 29.7787 444.759 30.3813 444.759 31.16V31.944C444.759 32.872 444.322 33.4693 443.447 33.736C443.863 33.7893 444.205 33.9707 444.471 34.28C444.749 34.5893 444.887 35.0053 444.887 35.528V36.552C444.887 37.3307 444.669 37.9333 444.231 38.36C443.794 38.7867 443.186 39 442.407 39H438.471C438.29 39 438.199 38.9093 438.199 38.728Z" fill="white" fill-opacity="0.6" shape-rendering="crispEdges"/>
</g>
<g filter="url(#filter4_d_10_107)">
<path d="M596.448 39H595.44C595.259 39 595.168 38.9093 595.168 38.728V28.984C595.168 28.8027 595.259 28.712 595.44 28.712H599.248C600.027 28.712 600.635 28.9307 601.072 29.368C601.509 29.7947 601.728 30.4027 601.728 31.192V32.856C601.728 33.6347 601.509 34.2427 601.072 34.68C600.635 35.1173 600.027 35.336 599.248 35.336H596.912C596.784 35.336 596.72 35.3893 596.72 35.496V38.728C596.72 38.9093 596.629 39 596.448 39ZM596.896 33.96H599.024C599.781 33.96 600.16 33.5653 600.16 32.776V31.256C600.16 30.4667 599.781 30.072 599.024 30.072H596.896C596.779 30.072 596.72 30.1253 596.72 30.232V33.8C596.72 33.9067 596.779 33.96 596.896 33.96ZM604.901 39H603.893C603.712 39 603.621 38.9093 603.621 38.728V28.984C603.621 28.8027 603.712 28.712 603.893 28.712H604.901C605.082 28.712 605.173 28.8027 605.173 28.984V32.984C605.173 33.0907 605.237 33.144 605.365 33.144H608.741C608.848 33.144 608.901 33.0907 608.901 32.984V28.984C608.901 28.8027 608.992 28.712 609.173 28.712H610.197C610.378 28.712 610.469 28.8027 610.469 28.984V38.728C610.469 38.9093 610.378 39 610.197 39H609.173C608.992 39 608.901 38.9093 608.901 38.728V34.68C608.901 34.5733 608.848 34.52 608.741 34.52H605.365C605.237 34.52 605.173 34.5733 605.173 34.68V38.728C605.173 38.9093 605.082 39 604.901 39ZM615.353 37.64H616.745C617.523 37.64 617.913 37.2453 617.913 36.456V31.256C617.913 30.4667 617.523 30.072 616.745 30.072H615.353C614.585 30.072 614.201 30.4667 614.201 31.256V36.456C614.201 37.2453 614.585 37.64 615.353 37.64ZM616.985 39H615.129C614.339 39 613.726 38.7813 613.289 38.344C612.862 37.9067 612.649 37.2987 612.649 36.52V31.192C612.649 30.4027 612.862 29.7947 613.289 29.368C613.726 28.9307 614.339 28.712 615.129 28.712H616.985C617.774 28.712 618.387 28.9307 618.825 29.368C619.262 29.7947 619.481 30.4027 619.481 31.192V36.52C619.481 37.2987 619.262 37.9067 618.825 38.344C618.387 38.7813 617.774 39 616.985 39ZM622.901 39H621.909C621.727 39 621.637 38.9093 621.637 38.728V28.984C621.637 28.8027 621.727 28.712 621.909 28.712H622.805C622.975 28.712 623.093 28.7707 623.157 28.888L627.029 35.848H627.093V28.984C627.093 28.8027 627.183 28.712 627.365 28.712H628.357C628.538 28.712 628.629 28.8027 628.629 28.984V38.728C628.629 38.9093 628.538 39 628.357 39H627.493C627.322 39 627.183 38.9147 627.077 38.744L623.237 31.864H623.173V38.728C623.173 38.9093 623.082 39 622.901 39ZM636.357 39H631.237C631.056 39 630.965 38.9093 630.965 38.728V28.984C630.965 28.8027 631.056 28.712 631.237 28.712H636.357C636.528 28.712 636.613 28.8027 636.613 28.984V29.8C636.613 29.9813 636.528 30.072 636.357 30.072H632.709C632.581 30.072 632.517 30.1253 632.517 30.232V32.936C632.517 33.0427 632.581 33.096 632.709 33.096H635.797C635.989 33.096 636.085 33.1867 636.085 33.368V34.184C636.085 34.3653 635.989 34.456 635.797 34.456H632.709C632.581 34.456 632.517 34.5093 632.517 34.616V37.464C632.517 37.5813 632.581 37.64 632.709 37.64H636.357C636.528 37.64 636.613 37.7307 636.613 37.912V38.728C636.613 38.9093 636.528 39 636.357 39ZM643.729 39H642.737C642.556 39 642.465 38.9093 642.465 38.728V28.984C642.465 28.8027 642.556 28.712 642.737 28.712H643.633C643.804 28.712 643.921 28.7707 643.985 28.888L647.857 35.848H647.921V28.984C647.921 28.8027 648.012 28.712 648.193 28.712H649.185C649.366 28.712 649.457 28.8027 649.457 28.984V38.728C649.457 38.9093 649.366 39 649.185 39H648.321C648.15 39 648.012 38.9147 647.905 38.744L644.065 31.864H644.001V38.728C644.001 38.9093 643.91 39 643.729 39ZM657.169 28.712H658.177C658.369 28.712 658.465 28.7973 658.465 28.968V36.52C658.465 37.2987 658.241 37.9067 657.793 38.344C657.356 38.7813 656.748 39 655.969 39L654.193 39C653.414 39 652.806 38.7813 652.369 38.344C651.932 37.9067 651.713 37.2987 651.713 36.52V28.984C651.713 28.8027 651.804 28.712 651.985 28.712H652.993C653.174 28.712 653.265 28.8027 653.265 28.984V36.456C653.265 37.2453 653.649 37.64 654.417 37.64L655.729 37.64C656.508 37.64 656.897 37.2453 656.897 36.456V28.984C656.897 28.8027 656.988 28.712 657.169 28.712ZM667.739 28.712H669.531C669.713 28.712 669.803 28.8027 669.803 28.984V38.728C669.803 38.9093 669.713 39 669.531 39H668.539C668.358 39 668.267 38.9093 668.267 38.728V30.648H668.203L666.123 36.504C666.059 36.6747 665.942 36.76 665.771 36.76H664.747C664.587 36.76 664.475 36.6747 664.411 36.504L662.283 30.632H662.219V38.728C662.219 38.8347 662.198 38.9093 662.155 38.952C662.123 38.984 662.054 39 661.947 39H660.971C660.79 39 660.699 38.9093 660.699 38.728V28.984C660.699 28.8027 660.79 28.712 660.971 28.712H662.763C662.881 28.712 662.966 28.7707 663.019 28.888L665.211 35.064H665.291L667.499 28.888C667.521 28.7707 667.601 28.712 667.739 28.712ZM673.865 37.672H676.105C676.905 37.672 677.305 37.288 677.305 36.52V35.528C677.305 34.76 676.883 34.376 676.041 34.376H673.865C673.747 34.376 673.689 34.4293 673.689 34.536V37.512C673.689 37.6187 673.747 37.672 673.865 37.672ZM673.865 33.096H675.945C676.755 33.096 677.161 32.7067 677.161 31.928V31.192C677.161 30.424 676.766 30.04 675.977 30.04H673.865C673.747 30.04 673.689 30.0933 673.689 30.2V32.936C673.689 33.0427 673.747 33.096 673.865 33.096ZM672.137 38.728V28.984C672.137 28.8027 672.227 28.712 672.409 28.712H676.201C676.99 28.712 677.603 28.9253 678.041 29.352C678.478 29.7787 678.697 30.3813 678.697 31.16V31.944C678.697 32.872 678.259 33.4693 677.385 33.736C677.801 33.7893 678.142 33.9707 678.409 34.28C678.686 34.5893 678.825 35.0053 678.825 35.528V36.552C678.825 37.3307 678.606 37.9333 678.169 38.36C677.731 38.7867 677.123 39 676.345 39H672.409C672.227 39 672.137 38.9093 672.137 38.728ZM686.357 39H681.237C681.056 39 680.965 38.9093 680.965 38.728V28.984C680.965 28.8027 681.056 28.712 681.237 28.712H686.357C686.528 28.712 686.613 28.8027 686.613 28.984V29.8C686.613 29.9813 686.528 30.072 686.357 30.072H682.709C682.581 30.072 682.517 30.1253 682.517 30.232V32.936C682.517 33.0427 682.581 33.096 682.709 33.096H685.797C685.989 33.096 686.085 33.1867 686.085 33.368V34.184C686.085 34.3653 685.989 34.456 685.797 34.456H682.709C682.581 34.456 682.517 34.5093 682.517 34.616V37.464C682.517 37.5813 682.581 37.64 682.709 37.64H686.357C686.528 37.64 686.613 37.7307 686.613 37.912V38.728C686.613 38.9093 686.528 39 686.357 39ZM689.932 39H688.924C688.743 39 688.652 38.9093 688.652 38.728V28.984C688.652 28.8027 688.743 28.712 688.924 28.712H692.668C693.447 28.712 694.055 28.936 694.492 29.384C694.94 29.8213 695.164 30.4293 695.164 31.208V32.552C695.164 33.7787 694.658 34.552 693.644 34.872V34.936L695.42 38.68C695.538 38.8933 695.468 39 695.212 39H694.22C693.964 39 693.799 38.9093 693.724 38.728L692.012 35.048H690.396C690.268 35.048 690.204 35.1013 690.204 35.208V38.728C690.204 38.9093 690.114 39 689.932 39ZM690.38 33.768H692.412C693.202 33.768 693.596 33.3787 693.596 32.6V31.256C693.596 30.4667 693.202 30.072 692.412 30.072H690.38C690.263 30.072 690.204 30.1253 690.204 30.232V33.608C690.204 33.7147 690.263 33.768 690.38 33.768Z" fill="white" fill-opacity="0.6" shape-rendering="crispEdges"/>
</g>
<defs>
<filter id="filter0_d_10_107" x="-1.02399" y="-1.28796" width="83.4931" height="70.288" filterUnits="userSpaceOnUse" color-interpolation-filters="sRGB">
<feFlood flood-opacity="0" result="BackgroundImageFix"/>
<feColorMatrix in="SourceAlpha" type="matrix" values="0 0 0 0 0 0 0 0 0 0 0 0 0 0 0 0 0 0 127 0" result="hardAlpha"/>
<feOffset/>
<feGaussianBlur stdDeviation="15"/>
<feComposite in2="hardAlpha" operator="out"/>
<feColorMatrix type="matrix" values="0 0 0 0 1 0 0 0 0 1 0 0 0 0 1 0 0 0 0.64 0"/>
<feBlend mode="normal" in2="BackgroundImageFix" result="effect1_dropShadow_10_107"/>
<feBlend mode="normal" in="SourceGraphic" in2="effect1_dropShadow_10_107" result="shape"/>
</filter>
<filter id="filter1_d_10_107" x="62.168" y="-1.28796" width="95.1793" height="70.288" filterUnits="userSpaceOnUse" color-interpolation-filters="sRGB">
<feFlood flood-opacity="0" result="BackgroundImageFix"/>
<feColorMatrix in="SourceAlpha" type="matrix" values="0 0 0 0 0 0 0 0 0 0 0 0 0 0 0 0 0 0 127 0" result="hardAlpha"/>
<feOffset/>
<feGaussianBlur stdDeviation="15"/>
<feComposite in2="hardAlpha" operator="out"/>
<feColorMatrix type="matrix" values="0 0 0 0 1 0 0 0 0 1 0 0 0 0 1 0 0 0 0.64 0"/>
<feBlend mode="normal" in2="BackgroundImageFix" result="effect1_dropShadow_10_107"/>
<feBlend mode="normal" in="SourceGraphic" in2="effect1_dropShadow_10_107" result="shape"/>
</filter>
<filter id="filter2_d_10_107" x="249.168" y="-1.28796" width="88.3401" height="70.288" filterUnits="userSpaceOnUse" color-interpolation-filters="sRGB">
<feFlood flood-opacity="0" result="BackgroundImageFix"/>
<feColorMatrix in="SourceAlpha" type="matrix" values="0 0 0 0 0 0 0 0 0 0 0 0 0 0 0 0 0 0 127 0" result="hardAlpha"/>
<feOffset/>
<feGaussianBlur stdDeviation="15"/>
<feComposite in2="hardAlpha" operator="out"/>
<feColorMatrix type="matrix" values="0 0 0 0 1 0 0 0 0 1 0 0 0 0 1 0 0 0 0.64 0"/>
<feBlend mode="normal" in2="BackgroundImageFix" result="effect1_dropShadow_10_107"/>
<feBlend mode="normal" in="SourceGraphic" in2="effect1_dropShadow_10_107" result="shape"/>
</filter>
<filter id="filter3_d_10_107" x="390.544" y="-1.28796" width="84.3433" height="70.288" filterUnits="userSpaceOnUse" color-interpolation-filters="sRGB">
<feFlood flood-opacity="0" result="BackgroundImageFix"/>
<feColorMatrix in="SourceAlpha" type="matrix" values="0 0 0 0 0 0 0 0 0 0 0 0 0 0 0 0 0 0 127 0" result="hardAlpha"/>
<feOffset/>
<feGaussianBlur stdDeviation="15"/>
<feComposite in2="hardAlpha" operator="out"/>
<feColorMatrix type="matrix" values="0 0 0 0 1 0 0 0 0 1 0 0 0 0 1 0 0 0 0.64 0"/>
<feBlend mode="normal" in2="BackgroundImageFix" result="effect1_dropShadow_10_107"/>
<feBlend mode="normal" in="SourceGraphic" in2="effect1_dropShadow_10_107" result="shape"/>
</filter>
<filter id="filter4_d_10_107" x="565.168" y="-1.28796" width="160.428" height="70.288" filterUnits="userSpaceOnUse" color-interpolation-filters="sRGB">
<feFlood flood-opacity="0" result="BackgroundImageFix"/>
<feColorMatrix in="SourceAlpha" type="matrix" values="0 0 0 0 0 0 0 0 0 0 0 0 0 0 0 0 0 0 127 0" result="hardAlpha"/>
<feOffset/>
<feGaussianBlur stdDeviation="15"/>
<feComposite in2="hardAlpha" operator="out"/>
<feColorMatrix type="matrix" values="0 0 0 0 1 0 0 0 0 1 0 0 0 0 1 0 0 0 0.64 0"/>
<feBlend mode="normal" in2="BackgroundImageFix" result="effect1_dropShadow_10_107"/>
<feBlend mode="normal" in="SourceGraphic" in2="effect1_dropShadow_10_107" result="shape"/>
</filter>
</defs>
</svg>
